<?xml version="1.0" encoding="UTF-8" standalone="no"?><svg xmlns:svg="http://www.w3.org/2000/svg" xmlns="http://www.w3.org/2000/svg" version="1.1" style="overflow:visible" viewBox="-250 -250 500 500" height="2000px" width="2000px"><rect fill-opacity="0" fill="rgb(0,0,0)" height="500" width="500" y="-250" x="-250" /><svg version="1.1" y="-250" x="-250" viewBox="-250 -250 500 500" height="500px" width="500px" style="overflow:visible"><g transform="rotate(0,0,0)" stroke-linejoin="round" fill="#fff"><path stroke-linecap="round" stroke-linejoin="round" stroke-width="22" stroke-opacity="1" stroke="rgb(224,136,136)" fill="rgb(224,136,136)" d="m195 0a195 195 0 0 1-195 195a195 195 0 0 1-195-195a195 195 0 0 1 195-195a195 195 0 0 1 195 195z" /></g></svg><svg version="1.1" y="-273" x="-156" viewBox="-250 -250 500 500" height="500px" width="500px" style="overflow:visible"><g transform="rotate(0,0,0)" stroke-linejoin="round" fill="#fff"><path stroke-linecap="butt" stroke-linejoin="round" stroke-width="4" stroke-opacity="1" stroke="rgb(255,255,255)" fill="rgb(255,0,0)" d="m38.947285-38.447094a38.947287 38.892989 0 0 1-38.947286 38.892986a38.947287 38.892989 0 0 1-38.947294-38.892987a38.947287 38.892989 0 0 1 38.947293-38.892995a38.947287 38.892989 0 0 1 38.947285 38.892994z" /><path stroke-linecap="butt" stroke-linejoin="round" stroke-width="4" stroke-opacity="1" stroke="rgb(255,255,255)" fill="rgb(255,0,0)" d="m30.752147 7.707629a55.551587 55.475533 0 0 1-30.752148 9.32129a55.551587 55.475533 0 0 1-30.761875-9.319672c-20.272833 3.951522-35.480882 21.657521-35.480882 43.038421v26.592419h132.485513v-26.59242c0-21.384295-15.212946-39.092262-35.49061-43.040041z" /></g></svg><svg version="1.1" y="-273" x="-344" viewBox="-250 -250 500 500" height="500px" width="500px" style="overflow:visible"><g transform="rotate(0,0,0)" stroke-linejoin="round" fill="#fff"><path stroke-linecap="butt" stroke-linejoin="round" stroke-width="4" stroke-opacity="1" stroke="rgb(255,255,255)" fill="rgb(255,0,0)" d="m38.947285-38.447094a38.947287 38.892989 0 0 1-38.947286 38.892986a38.947287 38.892989 0 0 1-38.947294-38.892987a38.947287 38.892989 0 0 1 38.947293-38.892995a38.947287 38.892989 0 0 1 38.947285 38.892994z" /><path stroke-linecap="butt" stroke-linejoin="round" stroke-width="4" stroke-opacity="1" stroke="rgb(255,255,255)" fill="rgb(255,0,0)" d="m30.752147 7.707629a55.551587 55.475533 0 0 1-30.752148 9.32129a55.551587 55.475533 0 0 1-30.761875-9.319672c-20.272833 3.951522-35.480882 21.657521-35.480882 43.038421v26.592419h132.485513v-26.59242c0-21.384295-15.212946-39.092262-35.49061-43.040041z" /></g></svg><svg version="1.1" y="-250" x="-250" viewBox="-250 -250 500 500" height="500px" width="500px" style="overflow:visible"><g transform="rotate(0,0,0)" stroke-linejoin="round" fill="#fff"><path stroke-linecap="butt" stroke-linejoin="round" stroke-width="4" stroke-opacity="1" stroke="rgb(255,255,255)" fill="rgb(255,0,0)" d="m38.947285-38.447094a38.947287 38.892989 0 0 1-38.947286 38.892986a38.947287 38.892989 0 0 1-38.947294-38.892987a38.947287 38.892989 0 0 1 38.947293-38.892995a38.947287 38.892989 0 0 1 38.947285 38.892994z" /><path stroke-linecap="butt" stroke-linejoin="round" stroke-width="4" stroke-opacity="1" stroke="rgb(255,255,255)" fill="rgb(255,0,0)" d="m30.752147 7.707629a55.551587 55.475533 0 0 1-30.752148 9.32129a55.551587 55.475533 0 0 1-30.761875-9.319672c-20.272833 3.951522-35.480882 21.657521-35.480882 43.038421v26.592419h132.485513v-26.59242c0-21.384295-15.212946-39.092262-35.49061-43.040041z" /></g></svg></svg>