<?xml version="1.0" encoding="UTF-8" standalone="no"?><svg xmlns:svg="http://www.w3.org/2000/svg" xmlns="http://www.w3.org/2000/svg" version="1.1" style="overflow:visible" viewBox="-250 -250 500 500" height="2000px" width="2000px"><rect fill-opacity="0" fill="rgb(0,0,0)" height="500" width="500" y="-250" x="-250" /><svg version="1.1" y="-250" x="-250" viewBox="-250 -250 500 500" height="500px" width="500px" style="overflow:visible"><g transform="rotate(0,0,0)" stroke-linejoin="round" fill="#fff"><path stroke-linecap="butt" stroke-linejoin="round" stroke-width="10" stroke-opacity="1" stroke="rgb(68,68,68)" fill="rgb(115,115,115)" d="m103.896-95.4c28.236 42.492-13.164 132.144-106.044 182.4s-191.856 50.532-221.076 0.612c-29.2092-49.932 32.6772-132.672 127.019999-180.132c86.1936-43.3656 174.144-41.9352 200.1-2.8692z" /><path stroke-linecap="butt" stroke-linejoin="round" stroke-width="10" stroke-opacity="1" stroke="rgb(68,68,68)" fill="rgb(236,230,209)" d="m-42.744-105.132c-0.89088-0.24852-1.9248-0.26772-3.16176 0.0186c-7.14372 1.65396-5.57304 19.5324-5.04432 24.456c1.70964 15.9252 7.488719 38.8632 44.693999 51.133199c37.2048 12.2688 55.5864-2.70168 66.501599-14.4636c3.37524-3.6372 15.3492-17.0484 10.608839-22.6212c-5.25384-6.17604-11.35908 2.6304-18.6384 1.08252c-10.6296-1.58856-21.4752-7.8804-41.6688-14.5392c-20.192401-6.65892-32.666401-8.05668-42.1464-13.1004c-5.71104-2.6028-6.33444-10.6236-11.145-11.96544z" /><path stroke-linecap="butt" stroke-linejoin="round" stroke="none" fill="rgb(202,193,166)" d="m8.58-74.124c-4.30764-1.38132-9.15468-1.513681-13.3236-2.71332c-3.47376-0.99948-6.297-3.98508-9.48804-4.76316c-4.33692-1.05756-8.09016 0.37032-11.66532 0.29208c-5.40384-0.11832-10.49076-1.81536-13.128 0.415079c-2.04192 1.72692-2.3436 6.68136-1.90356 11.03496c0.62544 6.18648 3.805199 13.4652 9.7908 19.2744c3.66552 3.55716 8.342879 5.44212 12.993599 7.99704c4.83528 2.656199 9.65184 5.937959 13.809599 7.308959c5.900519 1.945799 13.8252 1.97808 21.5592 1.9056c5.50704-0.05148 11.14764 1.14576 15.9744 0.07008c5.26584-1.17348 9.59592-4.749 12.550799-7.97268c4.78308-5.21856 5.637-10.49076 2.272919-14.2656c-1.8624-2.08956-5.7756-2.904121-9.23148-4.93308c-5.81952-3.41652-12.402001-8.37936-20.6172-11.67468c-2.81184-1.12788-6.6684-0.98472-9.59376-1.97616z" /><path stroke-linecap="butt" stroke-linejoin="round" stroke="none" fill="rgb(236,230,209)" d="m7.38-70.536c-4.4262-1.42392-8.15316-1.284-12.3984-2.50128c-3.98112-1.14156-6.56712-3.73512-10.15632-4.56312c-3.97116-0.9162-7.98588-0.30168-11.25168-0.2598c-2.352 0.03012-3.93204 1.04616-5.64 1.52856c-1.84488 0.521159-4.49688-0.06012-5.50032 1.0566c-1.05864 1.178159-0.40872 4.10616-0.0216 6.6924c0.476639 3.18408 3.19848 5.09796 5.85096 8.374079c1.85784 2.29464 1.903919 5.246519 4.32768 7.535879c2.52288 2.38308 6.50688 3.493079 9.736679 5.46048c5.27928 3.216 10.073039 6.86652 14.527199 8.335199c3.38016 1.11468 7.778639 0.47484 12.020399 1.011479c2.13888 0.2706 4.95144 1.902119 7.13976 2.068919c3.41592 0.260399 7.292999-1.6656 10.450919-1.99392c6.87012-0.71448 12.2784-0.9324 15.8256-4.4508c3.003479-2.97888 2.303039-4.06116 1.340639-6.68436c-0.69012-1.88124-1.02252-4.60164-3.1206-6.49068c-1.65564-1.49064-4.623-1.67748-7.08324-3.05256c-3.33468-1.86384-6.29448-5.70096-10.38576-7.68816c-4.60716-2.23788-10.4304-2.61144-15.6624-4.37904z" /><path stroke-linecap="butt" stroke-linejoin="round" stroke-width="10" stroke-opacity="1" stroke="rgb(68,68,68)" fill="rgb(236,230,209)" d="m-74.64-78.492c-0.92448-0.19428-1.97952-0.1452-3.22092 0.2286c-7.16976 2.16012-4.37508 20.286-3.50748 25.272c2.80584 16.125599 10.22712 39.132 48.962399 49.175999c38.736 10.043999 56.4684-6.44028 66.8064-19.158c3.1968-3.93264 14.504399-18.402 9.30084-23.7708c-5.76672-5.94936-11.40036 3.43524-18.9228 2.339639c-10.93872-0.91512-22.4124-6.61176-43.4352-12.063601c-21.0228-5.45124-33.828-6.04968-43.8264-10.563601c-5.994-2.27532-7.16484-10.41288-12.1572-11.46216z" /><path stroke-linecap="butt" stroke-linejoin="round" stroke="none" fill="rgb(202,193,166)" d="m-20.28-50.28c-4.48224-1.12296-9.43056-0.9366-13.7592-1.8834c-3.60696-0.78888-6.6834-3.64596-9.98736-4.22784c-4.49028-0.790801-8.21988 0.91404-11.8686 1.07124c-5.51496 0.2376-10.81236-1.1556-13.3512 1.29372c-1.9656 1.89624-1.9422 6.9684-1.203 11.3784c1.0506 6.26676 4.7772 13.478399 11.26488 19.0044c3.9732 3.38412 8.86572 4.9962 13.776 7.292999c5.10492 2.38788 10.23276 5.415 14.5608 6.53736c6.14328 1.592879 14.2212 1.1004 22.098 0.513839c5.6088-0.417721 11.43708 0.42924 16.283999-0.9876c5.288159-1.54572 9.46212-5.47872 12.258-8.96172c4.52604-5.63844 5.04408-11.07096 1.36368-14.6964c-2.03748-2.00724-6.07992-2.57844-9.73728-4.41816c-6.15876-3.09804-13.1976-7.72224-21.7908-10.53768c-2.94096-0.9636-6.8616-0.56208-9.909-1.37904z" /><path stroke-linecap="butt" stroke-linejoin="round" stroke="none" fill="rgb(236,230,209)" d="m-21.252-46.536c-4.60584-1.1586-8.39472-0.76872-12.8016-1.72848c-4.1334-0.90012-6.942-3.37332-10.655041-3.97968c-4.1082-0.670921-8.15856 0.22188-11.484 0.481079c-2.39496 0.186719-3.93732 1.32744-5.64564 1.932599c-1.84536 0.653759-4.58676 0.236879-5.53488 1.44216c-1.0002 1.27152-0.14232 4.21416 0.42492 6.8256c0.698279 3.215279 3.599999 4.98624 6.521879 8.15112c2.046599 2.21676 2.29068 5.223599 4.913639 7.3974c2.73024 2.26272 6.864479 3.130439 10.28736 4.92252c5.595 2.92932 10.72404 6.333839 15.3612 7.536239c3.51924 0.91248 7.959-0.031441 12.316799 0.234479c2.1978 0.13416 5.17308 1.61136 7.41432 1.636319c3.4986 0.039 7.32108-2.18184 10.5174-2.72616c6.95352-1.18404 12.451199-1.76484 15.831599-5.58768c2.861879-3.23664 2.075759-4.29384 0.919919-6.90492c-0.82896-1.87248-1.3494-4.62444-3.61368-6.4116c-1.786801-1.41024-4.8234-1.404-7.42236-2.64312c-3.52284-1.67952-6.79548-5.3958-11.09748-7.15092c-4.84464-1.97652-10.80408-1.97124-16.254-3.42684z" /><path stroke-linecap="butt" stroke-linejoin="round" stroke-width="10" stroke-opacity="1" stroke="rgb(68,68,68)" fill="rgb(236,230,209)" d="m-93.336-49.08c-0.90504-0.33312-1.97808-0.43992-3.28812-0.24564c-7.5654 1.12188-7.44384 19.8528-7.31064 25.021199c0.430919 16.711199 4.49916 41.060399 42.1356 56.9436c37.6356 15.8832 58.008 1.84872 70.3476-9.47364c3.81588-3.50112 17.3964-16.4496 12.939599-22.6452c-4.93908-6.86568-12.03 1.7844-19.4652-0.43608c-10.9146-2.54364-21.6564-9.99864-42.0828-18.6192c-20.4264-8.62032-33.2736-11.12004-42.702-17.1612c-5.716321-3.18648-5.68632-11.58336-10.57332-13.3824z" /><path stroke-linecap="butt" stroke-linejoin="round" stroke="none" fill="rgb(202,193,166)" d="m-42.612-12.528c-4.3608-1.7982-9.38784-2.34216-13.62-3.93972c-3.52632-1.33104-6.20856-4.67376-9.45972-5.75064c-4.41864-1.46376-8.44056-0.29292-12.15-0.67404c-5.607-0.576-10.75116-2.76804-13.6812-0.66852c-2.26848 1.6254-3.00084 6.75468-2.91132 11.320799c0.127199 6.488519 2.817119 14.328 8.54772 20.872799c3.509519 4.008 8.21208 6.3612 12.8304 9.408959c4.801439 3.16872 9.53076 6.98676 13.736399 8.76156c5.96892 2.51892 14.2032 3.21672 22.2492 3.78972c5.72868 0.40812 11.49048 2.1264 16.5984 1.41192c5.5728-0.77952 10.375919-4.1364 13.7196-7.24248c5.412959-5.02824 6.74616-10.44168 3.56844-14.6508c-1.7592-2.33004-5.75796-3.50544-9.17868-5.90604c-5.760241-4.04232-12.1824-9.7572-20.4432-13.8744c-2.82744-1.40904-6.84828-1.58352-9.8052-2.86008z" /><path stroke-linecap="butt" stroke-linejoin="round" stroke="none" fill="rgb(236,230,209)" d="m-44.16-8.88c-4.48044-1.85244-8.36628-2.01924-12.675601-3.6414c-4.04172-1.52136-6.51048-4.4364-10.17132-5.59872c-4.050361-1.28604-8.27544-0.98328-11.67372-1.21344c-2.4474-0.16548-4.17564 0.75876-5.99172 1.11756c-1.96176 0.38748-4.6692-0.43944-5.80668 0.63828c-1.2 1.137-0.77184 4.23768-0.58812 6.96072c0.226199 3.35256 2.8938 5.57184 5.37384 9.20256c1.73712 2.54304 1.53552 5.61792 3.86136 8.20284c2.421 2.69076 6.46836 4.17948 9.65928 6.49704c5.2158 3.7884 9.890039 7.98792 14.3952 9.88932c3.41928 1.442999 8.0454 1.146119 12.409199 2.05992c2.200319 0.4608 4.986 2.394 7.24656 2.75088c3.52872 0.55716 7.721519-1.12152 11.031839-1.19844c7.20144-0.167401 12.8424 0.05928 16.8264-3.30384c3.3738-2.84736 2.7372-4.03212 1.95852-6.8418c-0.55836-2.01504-0.67392-4.87308-2.69508-7.01424c-1.59504-1.6896-4.66368-2.13276-7.1046-3.769561c-3.30864-2.21868-6.06096-6.45864-10.14552-8.86896c-4.59972-2.7144-10.6212-3.59112-15.9108-5.8686z" /><path stroke-linecap="butt" stroke-linejoin="round" stroke-width="10" stroke-opacity="1" stroke="rgb(68,68,68)" fill="rgb(236,230,209)" d="m-130.764-22.368c-0.9486-0.26472-2.04948-0.28524-3.3666 0.02004c-7.60656 1.76352-5.93556 20.8188-5.373 26.0676c1.8192 16.9752 7.97088 41.422799 47.5848 54.498c39.6144 13.074 59.187599-2.88396 70.8108-15.4224c3.594119-3.87708 16.345199-18.1728 11.297759-24.1128c-5.5938-6.58248-12.094801 2.804519-19.8456 1.15524c-11.31792-1.69236-22.866-8.39784-44.3664-15.4944c-21.500401-7.09596-34.7808-8.58492-44.8764-13.9596c-6.080761-2.7738-6.74388-11.32296-11.86608-12.7524z" /><path stroke-linecap="butt" stroke-linejoin="round" stroke="none" fill="rgb(202,193,166)" d="m-76.128 10.68c-4.58664-1.47192-9.7476-1.6128-14.1864-2.89104c-3.69876-1.06512-6.70464-4.24704-10.10232-5.07612c-4.61772-1.1268-8.6142 0.39528-12.4212 0.312239c-5.753761-0.12564-11.17008-1.93416-13.9788 0.443519c-2.1744 1.8408-2.496 7.12176-2.02764 11.76204c0.66552 6.59388 4.0506 14.352 10.42344 20.5428c3.90276 3.791159 8.88288 5.79996 13.8348 8.52288c5.148239 2.8308 10.27656 6.32844 14.7036 7.78932c6.282719 2.07348 14.720399 2.10732 22.956 2.02956c5.863799-0.05544 11.86968 1.220279 17.008799 0.07356c5.60712-1.25112 10.21788-5.06256 13.3644-8.49876c5.0934-5.56272 6.003-11.1822 2.421359-15.2052c-1.98288-2.22708-6.14952-3.09504-9.82908-5.25732c-6.1962-3.64116-13.2048-8.9304-21.9516-12.4416c-2.994-1.20192-7.10028-1.04916-10.21512-2.10564z" /><path stroke-linecap="butt" stroke-linejoin="round" stroke="none" fill="rgb(236,230,209)" d="m-77.4 14.508c-4.71276-1.5174-8.68128-1.368-13.2012-2.66508c-4.239-1.21656-6.99216-3.98064-10.81392-4.863c-4.22832-0.9762-8.5032-0.32088-11.98056-0.276c-2.5044 0.0324-4.1868 1.1154-6.0054 1.62972c-1.9644 0.5556-4.78812-0.06372-5.85672 1.12668c-1.1274 1.2558-0.43548 4.37676-0.02352 7.13328c0.50724 3.393839 3.40536 5.433599 6.229319 8.92524c1.97796 2.44572 2.0268 5.592 4.6074 8.03196c2.6862 2.539799 6.9282 3.722639 10.36704 5.8194c5.62104 3.42744 10.725 7.318079 15.468 8.88324c3.59904 1.18788 8.28252 0.50556 12.7992 1.07724c2.27736 0.28824 5.27208 2.02704 7.602119 2.20464c3.6372 0.2772 7.76556-1.77588 11.12808-2.12616c7.3152-0.762 13.074-0.99468 16.851599-4.74516c3.198239-3.17532 2.45256-4.32888 1.428-7.12488c-0.73476-2.00508-1.0884-4.90464-3.32232-6.918c-1.762801-1.5888-4.922401-1.78764-7.54176-3.2532c-3.55056-1.98648-6.70188-6.07596-11.05788-8.19384c-4.90548-2.38488-11.106-2.78256-16.676401-4.66632z" /><path stroke-linecap="butt" stroke-linejoin="round" stroke-width="10" stroke-opacity="1" stroke="rgb(68,68,68)" fill="rgb(236,230,209)" d="m-166.704 12.299999c-0.99348-0.15552-2.11224-0.04512-3.41112 0.42132c-7.50144 2.694-3.525601 21.8172-2.3268 27.0732c3.87684 16.9956 13.0416 41.0544 54.7728 49.5948s59.666399-9.97248 69.9504-24.070801c3.179999-4.35948 14.397599-20.3736 8.56812-25.7964c-6.45972-6.00864-11.92764 4.28412-19.9836 3.53472c-11.67816-0.36828-24.189601-5.79276-46.8384-10.428s-36.2928-4.5636-47.172001-8.81148c-6.49752-2.0886-8.19348-10.67868-13.5576-11.51856z" /><path stroke-linecap="butt" stroke-linejoin="round" stroke="none" fill="rgb(202,193,166)" d="m-107.352 39.3c-4.82664-0.94644-10.0764-0.4746-14.73-1.24224c-3.8778-0.6396-7.30644-3.5082-10.85064-3.9444c-4.81692-0.5928-8.6868 1.42668-12.5568 1.79568c-5.84904 0.557759-11.5572-0.6312-14.1204 2.11428c-1.9842 2.12556-1.67808 7.518839-0.64764 12.168c1.46424 6.607079 5.825399 14.0712 13.0284 19.59c4.41096 3.37956 9.700919 4.823519 15.047999 6.99492c5.558759 2.25744 11.1774 5.193479 15.839999 6.14772c6.61836 1.35444 15.177599 0.38388 23.5188-0.6756c5.9388-0.75444 12.181199-0.17604 17.2548-1.95096c5.53536-1.93644 9.75396-6.3504 12.5328-10.20936c4.49832-6.24732 4.7478-12.054 0.63456-15.7068c-2.27712-2.02224-6.60564-2.40612-10.5954-4.16064c-6.71844-2.9544-14.4576-7.48332-23.7468-10.0026c-3.17952-0.86232-7.32468-0.21828-10.609441-0.91872z" /><path stroke-linecap="butt" stroke-linejoin="round" stroke="none" fill="rgb(236,230,209)" d="m-108.18 43.343999c-4.96008-0.97752-8.96592-0.3534-13.704-1.1304c-4.4436-0.72876-7.56624-3.203881-11.54664-3.64344c-4.40412-0.48636-8.66004 0.68724-12.18 1.146839c-2.53536 0.33108-4.11156 1.6296-5.89392 2.36772c-1.92528 0.79728-4.8624 0.50556-5.80344 1.839839c-0.99264 1.40772 0.08256 4.49004 0.830159 7.236c0.920639 3.38112 4.10328 5.1042 7.38456 8.308679c2.298359 2.24448 2.7246 5.42904 5.63316 7.596c3.0276 2.255639 7.47024 2.94984 11.208 4.66656c6.10968 2.806199 11.75052 6.14352 16.745999 7.165919c3.7914 0.77592 8.45844-0.47364 13.1064-0.43176c2.3436 0.02112 5.588159 1.42776 7.97184 1.33032c3.72108-0.15204 7.66104-2.72544 11.02848-3.48108c7.32576-1.64376 13.1376-2.5656 16.518-6.8184c2.8626-3.60072 1.96836-4.68168 0.594839-7.39476c-0.98496-1.94568-1.6908-4.8438-4.19676-6.61932c-1.9776-1.40112-5.20488-1.22652-8.03628-2.40072c-3.83784-1.59144-7.52256-5.36316-12.1932-6.99192c-5.25924-1.8342-11.59368-1.49916-17.4672-2.74584z" /><path stroke-linecap="butt" stroke-linejoin="round" stroke="none" fill="rgb(56,56,56)" d="m55.296-106.248c21.1164 10.01292 30.6684 25.656 30.619199 62.8596c11.552159-22.3392 6.98424-53.7432-30.6192-62.8596z" /><path stroke-linecap="butt" stroke-linejoin="round" stroke="none" fill="rgb(56,56,56)" d="m-169.416 100.151999c-31.7244-16.704-36.2052-42.372-23.1816-81.876c-26.1408 29.611199-27.6432 66.691199 23.1804 81.877199z" /><path stroke-linecap="butt" stroke-linejoin="miter" stroke-width="10" stroke-opacity="1" stroke="rgb(68,68,68)" fill="rgb(255,255,255)" d="m230.507999 66.263999a78.0564 40.44 0 0 1-78.0564 40.44a78.0564 40.44 0 0 1-78.0564-40.440001a78.0564 40.44 0 0 1 78.0564-40.440001a78.0564 40.44 0 0 1 78.0564 40.44z" /><path stroke-linecap="butt" stroke-linejoin="miter" stroke-width="10" stroke-opacity="1" stroke="rgb(68,68,68)" fill="rgb(193,146,101)" d="m208.439999 69.372a55.992 26.37 0 0 1-55.992 26.37a55.992 26.37 0 0 1-55.992-26.37a55.992 26.37 0 0 1 55.992-26.37a55.992 26.37 0 0 1 55.992 26.37z" /><path stroke-linecap="butt" stroke-linejoin="round" stroke="none" fill="rgb(255,215,176)" d="m179.028 56.088a7.539239 5.31168 0 0 1-7.53924 5.31168a7.539239 5.31168 0 0 1-7.53924-5.31168a7.539239 5.31168 0 0 1 7.539239-5.31168a7.539239 5.31168 0 0 1 7.539239 5.31168z" /><path stroke-linecap="butt" stroke-linejoin="round" stroke="none" fill="rgb(255,215,176)" d="m189.684 61.559999a5.218199 3.676439 0 0 1-5.2182 3.676439a5.218199 3.676439 0 0 1-5.2182-3.67644a5.218199 3.676439 0 0 1 5.218199-3.67644a5.218199 3.676439 0 0 1 5.218199 3.676439z" /></g></svg></svg>