<?xml version="1.0" encoding="UTF-8" standalone="no"?><svg xmlns:svg="http://www.w3.org/2000/svg" xmlns="http://www.w3.org/2000/svg" version="1.1" style="overflow:visible" viewBox="-240 -240 480 480" height="1920px" width="1920px"><rect fill-opacity="0" fill="rgb(0,0,0)" height="480" width="480" y="-240" x="-240" /><svg version="1.1" y="-250" x="-250" viewBox="-250 -250 500 500" height="500px" width="500px" style="overflow:visible"><g transform="rotate(0,0,0)" stroke-linejoin="round" fill="#fff"><path stroke-linecap="butt" stroke-linejoin="round" stroke-width="16" stroke-opacity="1" stroke="rgb(68,68,68)" fill="rgb(241,223,207)" d="m-169.385862-137.31805l182.16988-13.401714l156.601649 13.401714v21.917538h-338.7725z" /><path stroke-linecap="butt" stroke-linejoin="round" stroke-width="16" stroke-opacity="1" stroke="rgb(68,68,68)" fill="rgb(255,246,207)" d="m-80.88345-148.273909v168.27075h-21.878932v-168.27075z" /><path stroke-linecap="butt" stroke-linejoin="round" stroke-width="16" stroke-opacity="1" stroke="rgb(68,68,68)" fill="rgb(255,246,207)" d="m-102.7618-148.273909v168.27075h-21.878932v-168.27075z" /><path stroke-linecap="butt" stroke-linejoin="round" stroke-width="16" stroke-opacity="1" stroke="rgb(68,68,68)" fill="rgb(255,246,207)" d="m-59.004131-148.273909v168.27075h-21.878932v-168.27075z" /><path stroke-linecap="butt" stroke-linejoin="round" stroke-width="16" stroke-opacity="1" stroke="rgb(68,68,68)" fill="rgb(241,223,207)" d="m-169.385862-159.236849h338.7725v21.917538h-338.7725z" /><path stroke-linecap="butt" stroke-linejoin="round" stroke-width="16" stroke-opacity="1" stroke="rgb(68,68,68)" fill="rgb(255,255,255)" d="m-64.771751 132.40015v26.836311h129.539619v-26.836311l-66.566348-18.427866z" /><path stroke-linecap="butt" stroke-linejoin="round" stroke="none" fill="rgb(255,255,255)" d="m-181.356244-14.23572c-11.256171 0-10.712098 14.384033 4.132626 20.332266c28.642839 11.477137 69.191749 126.305639 112.4521 126.305639h129.54253c43.260836 0 83.809552-114.82763 112.4521-126.30564c14.844686-5.948254 15.388758-20.332267 4.132655-20.332267z" /><path stroke-linecap="butt" stroke-linejoin="round" stroke="none" fill="rgb(255,0,0)" d="m-111.230871 8.68538v44.741637h35.7445v-26.846884h-17.869922v8.947309h8.934951v8.952391h-17.870116v-26.846884h35.740426v35.79494h53.620242v-44.741444h-35.745276v26.84184h17.869922v-8.94729h-8.934961v-8.947455h17.870116v26.846884h-35.740426v-35.794164h-53.619078z" /><path stroke-linecap="butt" stroke-linejoin="round" stroke="none" fill="rgb(255,0,0)" d="m12.92913 8.68538v44.741637h35.7445v-26.846884h-17.869922v8.947309h8.93497v8.952391h-17.87031v-26.846884h35.740426v35.79494h53.620242v-44.741444h-35.745276v26.84184h17.869922v-8.94729h-8.934961v-8.947455h17.870116v26.846884h-35.740426v-35.794164h-53.619078z" /><path stroke-linecap="butt" stroke-linejoin="round" stroke-width="16" stroke-opacity="1" stroke="rgb(68,68,68)" fill="none" d="m-181.356244-14.23572c-11.256171 0-10.712098 14.384033 4.132626 20.332266c28.642839 11.477137 69.191749 126.305639 112.4521 126.305639h129.54253c43.260836 0 83.809552-114.82763 112.4521-126.30564c14.844686-5.948254 15.388758-20.332267 4.132655-20.332267z" /></g></svg></svg>