<?xml version="1.0" encoding="UTF-8" standalone="no"?><svg xmlns:svg="http://www.w3.org/2000/svg" xmlns="http://www.w3.org/2000/svg" version="1.1" style="overflow:visible" viewBox="-250 -250 500 500" height="2000px" width="2000px"><rect fill-opacity="0" fill="rgb(0,0,0)" height="500" width="500" y="-250" x="-250" /><svg version="1.1" y="-250" x="-250" viewBox="-250 -250 500 500" height="500px" width="500px" style="overflow:visible"><g transform="rotate(0,0,0)" stroke-linejoin="round" fill="#fff"><path stroke-linecap="butt" stroke-linejoin="round" stroke-width="7" stroke-opacity="1" stroke="rgb(68,68,68)" fill="rgb(102,102,102)" d="m197 0a197 197 0 0 1-197 197a197 197 0 0 1-197-197a197 197 0 0 1 197-197a197 197 0 0 1 197 197z" /><path stroke-linecap="butt" stroke-linejoin="round" stroke-width="7" stroke-opacity="1" stroke="rgb(68,68,68)" fill="rgb(248,233,192)" d="m177.242 0a177.242 177.242 0 0 1-177.242 177.242a177.242 177.242 0 0 1-177.242-177.242a177.242 177.242 0 0 1 177.242-177.242a177.242 177.242 0 0 1 177.242 177.242z" /><path stroke-linecap="butt" stroke-linejoin="round" stroke-width="7" stroke-opacity="1" stroke="rgb(68,68,68)" fill="rgb(255,255,255)" d="m32.764-160.4923c-16.5706 0.466794-33.0982 7.11629-45.0224 21.881a10.4002 10.4002 0 1 0 16.181 13.0665c9.36943-11.6015 20.6096-15.0856 34.3461-14.036c13.737 1.04912 29.4876 7.60199 43.2504 17.0614c13.7627 9.45886 25.511 21.8048 31.8308 32.7765c3.15979 5.4853 4.91641 10.5779 5.33764 14.4339c0.42129 3.85612-0.20427 6.20797-1.72501 8.31648c-0.27636 0.3832-0.19346 0.26439-0.37101 0.49287c-0.3328-0.22785-0.45806-0.25521-0.9722-0.70952c-4.22977-3.73756-11.4948-13.5194-21.0962-23.3702c-9.60111-9.85153-22.2429-20.109-39.2974-24.7553c-17.0545-4.64534-37.9622-3.24881-62.4679 7.8481c-10.3076 4.6678-10.2117 2.90911-16.8714-0.027c-6.65971-2.93614-19.1676-6.99191-35.8089-0.91262c-23.0028 8.40273-47.7179 27.1762-65.7873 47.026c-9.03498 9.92474-16.3612 20.0369-20.5929 30.1795c-2.11574 5.07115-3.50547 10.2184-3.45555 15.6388c0.0499 5.42083 1.88279 11.2888 5.81974 15.7178c8.59434 9.66863 21.1434 13.4285 34.328 14.4561c13.1839 1.02729 27.7184-0.54232 42.858-3.07368c30.2807-5.06269 63.2014-14.1469 87.5546-17.0905c12.5765-1.52021 23.0956-0.37496 30.0783 1.84687c6.38684 2.03212 8.59199 4.81352 8.88801 5.04522c-0.42122 0.60403-1.54738 1.89291-4.167812 3.46635c-5.8354 3.50394-17.9128 7.5661-36.6408 9.74365c-38.2478 4.44748-80.3224 3.72232-111.89 4.72562c-15.7844 0.50168-28.7222 1.24303-38.801 4.056739c-5.03967 1.40679-9.87897 3.09588-13.7842 8.0891c-3.90519 4.99321-3.75045 13.281-1.0697 18.3745c4.20151 7.98287 11.3451 9.95301 18.5478 11.6529c7.20254 1.69989 15.6568 2.49813 25.2282 2.922c19.144 0.84779 42.6376 0.0227 65.343599-0.66077c22.706-0.68345 44.6924-1.2004 59.5506-0.008c1.41594 0.11357 2.38957 0.32298 3.66948 0.47663c-3.31618 0.66444-7.09187 1.26229-11.3821 1.71418c-15.783 1.6626-36.8363 1.83065-57.2379 2.04737s-40.0212 0.42182-54.7172 2.71887c-7.3477 1.14855-13.487 2.3122-19.2438 6.61589c-2.87832 2.15192-5.82791 5.81058-6.5779 10.3801c-0.74996 4.56948 0.73523 8.8191 2.71887 12.032c2.0543 3.3273 3.91393 4.38301 5.93884 5.73572c2.02491 1.35275 4.27874 2.58729 6.88668 3.86444c5.2159 2.55414 11.8269 5.22574 19.6251 7.9238c15.5972 5.39629 35.8574 10.8332 57.4902 14.3604c21.6328 3.52778 44.5912 5.17735 65.744299 2.59699c21.1531-2.58035 40.9959-9.42904 54.5757-24.3241c31.3775-34.414 43.023-67.6453 40.6049-96.8389c-2.41841-29.1923-18.5672-53.1933-38.8884-70.2048c-20.3212-17.0101-44.8685-27.5367-67.0144-30.1892c-11.0727-1.32638-21.6439-0.72405-30.9989 2.82993c-9.355 3.55399-17.555 10.7181-21.2072 20.7094a10.4002 10.4002 0 0 0-0.12189 0.34936c-1.84243 5.66001-1.30365 12.3703 1.63031 17.2999c2.93393 4.92903 7.28586 7.91716 11.7423 10.0768c8.91285 4.3195 19.388 5.9028 29.9785 6.82706c21.1822 1.84854 42.7928 0.065 42.7928 0.065a10.4002 10.4002 0 1 0-1.65732-20.733s-20.5638 1.58592-39.3265-0.0514c-9.38135-0.81871-18.3232-2.69419-22.7157-4.82309c-2.07718-1.00667-2.72469-1.83342-2.78127-1.89027c-0.00064-0.00067-0.032-0.0212-0.0324-0.0216c0.0413-0.0736 0.042 0.0111 0.14624-0.30871l-0.1137 0.33039c1.49316-4.06965 4.03026-6.47711 9.05038-8.38429c5.02857-1.91038 12.4878-2.66161 21.142-1.62489c17.3082 2.07343 39.0048 11.1482 56.1356 25.4888c17.1321 14.341 29.6443 33.4379 31.512 55.9734c1.86697 22.5369-6.57734 49.6646-35.2487 81.11c-8.80773 9.66031-23.4769 15.4669-41.7238 17.6923c-18.2469 2.22567-39.5747 0.83047-59.8792-2.48067c-20.3045-3.31106-39.6343-8.50589-54.0377-13.489c-6.13823-2.12363-10.7769-4.11055-14.7265-5.92262c0.67462-0.13685 1.05318-0.30997 1.79003-0.42516c11.9269-1.86436 31.3844-2.25647 51.725-2.47249c20.3406-0.21606 41.6934-0.3173 59.1957-2.16106c8.75173-0.92189 16.5193-2.21252 23.2496-4.59293c6.72986-2.38042 13.7924-6.1313 16.4278-14.4131c1.29166-4.05952 0.679-9.68458-1.84147-13.3833c-2.52046-3.69874-5.77661-5.54783-8.91228-6.89486c-6.27133-2.69391-13.2814-3.64466-21.7244-4.32213c-16.8853-1.35492-39.0756-0.73123-61.8398-0.0461c-22.7629 0.68518-46.0291 1.45587-63.8004 0.6689c-6.28561-0.27836-11.4872-0.83784-15.9827-1.5166c6.70172-0.92583 14.9913-1.67466 25.6053-2.01215c30.6287-0.97353 73.4119-0.17884 113.631-4.85567c20.507-2.38444 34.8896-6.53256 44.9462-12.571c5.02803-3.0192 9.09684-6.58746 11.7694-11.2711c2.67255-4.68346 3.478-10.728 1.90109-15.8537c-3.15397-10.2503-12.2103-15.668-22.792-19.0358c-10.581-3.36667-23.782-4.50086-38.8828-2.67562c-27.0722 3.27252-59.8474 12.4349-88.4864 17.2236c-14.3202 2.39429-27.5534 3.65105-37.8124 2.85156c-10.2593-0.79941-16.8285-3.5189-20.4002-7.53669c-0.37321-0.41988-0.55219-0.59418-0.56598-2.0934c-0.0139-1.49914 0.48046-4.151031 1.85228-7.43908c2.74368-6.57637 8.80218-15.4267 16.7772-24.1855c15.9494-17.519 39.7591-34.9936 57.5443-41.4909c12.1858-4.4515 13.758-2.46971 20.281 0.40621c6.523 2.87593 18.9055 6.7074 33.8427-0.0569c21.1739-9.58823 36.3468-10.0156 48.4208-6.72695c12.0739 3.28874 21.6051 10.7228 29.8703 19.2036c8.264749 8.48023 14.5573 17.6701 22.2193 24.4406c3.83102 3.38524 8.70416 6.88973 15.5709 6.7404c6.86742-0.14926 12.6026-4.66461 16.4084-9.94137c4.84499-6.71766 6.38254-14.9899 5.53536-22.7448c-0.84726-7.75494-3.79164-15.2617-7.99162-22.5535c-8.39982-14.5826-22.0114-28.4994-38.0731-39.539c-16.0617-11.0391-34.5998-19.2175-53.4471-20.6567c-2.35586-0.179931-4.72257-0.240011-7.08981-0.173317z" /><path stroke-linecap="butt" stroke-linejoin="round" stroke-width="7" stroke-opacity="1" stroke="rgb(68,68,68)" fill="rgb(255,255,255)" d="m-109.329001 101.814c11.6813 21.6509 32.5352 39.8784 64.4285 50.2081c78.1123 25.3002 147.154-10.7574 179.127-59.9014c26.2708-40.3733 29.3559-93.6055 14.6502-139.043c-14.7071-45.4398-48.2961-84.2061-96.6906-91.6103c-25.6136-3.91906-48.0132 3.57631-65.0039 17.58c-16.9893 14.0041-28.9746 33.9842-37.0817 55.6794c-16.214201 43.3891-18.0583 93.4682-4.26986 124.256c10.1365 22.6339 28.9413 40.096 52.0134 46.8652c23.0721 6.76798 50.1998 2.19073 74.5766-17.1294c22.9528-18.1914 35.0782-47.356 35.8782-75.3253c0.80023-27.9693-10.5834-56.3921-37.0997-68.5451c-14.4159-6.60715-28.9704-6.499-41.2788-2.46069c-12.3096 4.038299-22.5424 11.5711-30.8742 19.5281c-16.6621 15.9147-26.3291 34.4417-26.3291 34.4417a10.4002 10.4002 0 1 0 18.387 9.71841s8.59906-16.028401 22.3067-29.1202c6.85396-6.54601 14.8318-12.1291 22.9916-14.8055c8.16009-2.677 16.3335-2.88401 26.1322 1.60742c17.4385 7.99217 25.6094 26.8435 24.9744 49.042c-0.63509 22.1972-10.9382 46.0928-28.0068 59.6213c-19.9218 15.79-39.1255 18.3648-55.8056 13.4714c-16.6801-4.89282-31.0475-17.9016-38.887-35.4081c-9.64008-21.5261-9.62329-69.9469 4.77387-108.475c7.19851-19.2632 17.7034-36.0959 30.827-46.9137c13.1239-10.8179 28.4574-16.1546 48.6288-13.0684c39.0853 5.98031 67.100398 37.4464 80.0479 77.4537c12.9484 40.0073 9.73866 87.4368-12.295 121.298c-27.0861 41.6268-86.0683 73.8778-155.279 51.4602c-31.7643-10.2882-47.7498-27.2456-55.9997-47.6818c-8.25076-20.4362-8.16535-45.1694-3.76086-69.262c8.80884-48.1865 34.2837-92.1898 34.2837-92.1898a10.4002 10.4002 0 1 0-17.9599-10.4896s-27.1124 46.0374-36.7836 98.9409c-4.83556 26.4511-5.46354 55.0277 4.93567 80.7842c1.2999 3.21969 2.78099 6.38281 4.44969 9.47577z" /><path stroke-linecap="butt" stroke-linejoin="round" stroke-width="7" stroke-opacity="1" stroke="rgb(68,68,68)" fill="rgb(255,255,255)" d="m-5.713-165.7612c-11.0136 0.262598-26.189 1.78018-42.8386 6.79462c-33.2992 10.0289-73.4313 34.6719-98.6775 89.3724c-33.442 72.4593-9.19307 136.762 14.9913 168.562c18.7086 24.6 46.5754 41.9498 75.5805 48.7425c29.0051 6.79253 60.0026 2.77836 82.3176-17.5079c25.1685-22.8793 39.974-63.6049 52.1063-103.817c7.33829-24.3241 14.696-51.309 16.3321-74.37c0.81825-11.5299 0.35376-22.1764-3.29026-31.6201c-3.64411-9.44264-11.9179-17.6604-22.7989-19.8428c-11.909-2.38804-23.7154 3.82879-29.5458 12.9772c-5.82986 9.14842-8.48371 20.4501-10.7485 33.428199c-4.52928 25.9561-6.53755 58.9516-13.8086 88.1841c-4.7216 18.9832-12.4342 39.1643-22.2138 50.6282c-4.89007 5.73196-9.9515 9.18973-15.3934 10.529c-5.44135 1.33934-11.8364 0.89123-20.7011-3.49076c-13.4809-6.66414-29.8883-26.4039-13.3048-63.5758c8.71678-19.5378 38.4946-49.189 61.0398-76.6495c11.2726-13.7307 20.9673-27.0196 25.1477-41.0597c2.089659-7.02035 2.70625-14.5601 0.38184-21.8159c-2.32442-7.25577-7.58232-13.5901-14.7071-18.233c-18.2344-11.8829-39.7147-11.2145-58.8116-3.76155c-19.0969 7.45294-36.8058 21.2502-51.7222 37.1982s-26.989 34.0493-34.041 51.126c-7.051 17.0767-10.3948 34.4265-0.36289 47.6056c3.98519 5.23517 9.38827 9.1193 15.3768 10.6401c5.98819 1.5209 12.0676 0.70113 17.4649-1.31342c10.7938-4.02915 19.9329-12.4028 28.37-22.67c16.8728-20.5333 30.5885-49.0115 32.3855-73.7003a10.4002 10.4002 0 1 0-20.7413-1.51105c-1.27662 17.5301-13.6 44.8311-27.7142 62.0076c-7.05722 8.58797-14.6502 14.5518-19.5738 16.3889c-2.46208 0.91904-3.98714 0.91403-5.06947 0.63911c-1.08244-0.2749-2.21417-0.79812-3.94847-3.07645c-2.15163-2.82647-2.75672-13.0371 3.03848-27.0723c5.79519-14.036 16.6732-30.601 30.0062-44.8574c13.3328-14.255 29.1687-26.2029 44.0962-32.029201c14.9275-5.82583 27.9541-5.96823 39.8922 1.81166c4.088218 2.66424 5.5251 4.87135 6.25567 7.15207c0.73065 2.28073 0.76066 5.27219-0.50913 9.53789c-2.53959 8.5314-10.647 20.8356-21.289 33.797c-21.2834 25.9242-51.7721 54.0613-63.957 81.3734c-20.0466 44.9323-0.20377 79.1855 23.079 90.6938c12.196 6.02896 24.2298 7.6666 34.891 5.04243c10.661-2.62417 19.3756-9.17794 26.2445-17.2292c13.737-16.1019 21.4678-38.5709 26.5745-59.1042c7.92159-31.8475 9.93693-65.7041 14.1122-89.6303c2.08745-11.9627 4.95704-21.3625 7.80209-25.8271c2.84505-4.46453 2.86404-4.77456 7.91577-3.76155c4.30092 0.8624 5.66472 2.2211 7.48511 6.93812c1.82039 4.71701 2.6483 12.8154 1.94976 22.6589c-1.39708 19.6861-8.30081 45.9694-15.5015 69.836c-11.8207 39.1809-27.5991 77.5382-46.1844 94.4333c-16.2322 14.757-39.4596 18.2968-63.5855 12.6468c-24.1272-5.65002-48.2974-20.7399-63.7671-41.0819c-20.0841-26.4095-42.535-82.534-12.663-147.251c22.7809-49.3582 56.8746-69.4686 85.7923-78.1774c28.9177-8.70915 51.7222-5.39448 51.7222-5.39448a10.4002 10.4002 0 1 0 2.98425-20.5846s-6.8516-0.991072-17.8656-0.728475z" /><path stroke-linecap="butt" stroke-linejoin="round" stroke="none" fill="rgb(253,189,239)" d="m-140.096 54.185999c22.5202 26.978 62.6468 30.5927 89.6247 8.07175l-10.2354-12.2609c-22.3206 13.4484-44.5884 9.42433-61.4558-10.7827c-16.8673-20.2061-18.0126-43.3406 0.37031-62.3903l-10.2353-12.2609c-26.9766 22.5216-30.5885 62.6454-8.06968 89.6234z" /><path stroke-linecap="butt" stroke-linejoin="round" stroke="none" fill="rgb(255,255,255)" d="m-127.825 43.952999c16.8673 20.2075 46.922 22.914 67.1294 6.04629l-61.0855-73.1734c-20.2047 16.8673-22.9112 46.922-6.04394 67.1267z" /><path stroke-linecap="butt" stroke-linejoin="round" stroke-width="7" stroke-opacity="1" stroke="rgb(68,68,68)" fill="none" d="m-140.096 54.185999a63.6312 63.6312 0 0 0 89.6247 8.07175l-81.555-97.6958a63.6312 63.6312 0 0 0-8.06968 89.6234z" /><path stroke-linecap="butt" stroke-linejoin="round" stroke="none" fill="rgb(232,207,119)" d="m-8.555001-50.734001c14.6544 0 25.6677-0.54616 40.3179-0.8765c20.5652-0.46373 44.167-3.3022 64.7377-3.30663c11.2299-0.003 22.2859 2.78875 33.4296 4.183188c7.70918 0.96465 14.5573 6.60703 14.5573 14.3757c2.38736 19.7818-1.31532 44.5066-0.42523 60.9441c1.20367 17.3082 1.68104 33.6375-0.10816 50.8944c-0.80107 7.72776-6.25468 14.0235-14.0235 14.0235c-10.6187 0-21.8117-0.0493-32.4298 0c-15.9369 0.074-30.5012 1.8136-46.4173 2.63512c-19.8719 1.02582-39.7577-1.75675-59.638-2.63512c-7.76159-0.34296-14.0235-6.2547-14.0235-14.0235c0-9.17405 0.79876-24.1328 0.8765-33.3061c0.13589-15.973-2.69848-25.3335-3.32146-41.2954c-0.48968-12.5467 1.63002-25.059 2.4449-37.5892c0.50416-7.75285 6.25455-14.0235 14.0235-14.0235z" /><path stroke-linecap="butt" stroke-linejoin="round" stroke-width="7" stroke-opacity="1" stroke="rgb(68,68,68)" fill="none" d="m-8.555001-50.734001c14.6544 0 25.6677-0.54616 40.3179-0.8765c20.5652-0.46373 44.167-3.3022 64.7377-3.30663c11.2299-0.003 22.2859 2.78875 33.4296 4.183188c7.70918 0.96465 14.5573 6.60703 14.5573 14.3757c2.38736 19.7818-1.31532 44.5066-0.42523 60.9441c1.20367 17.3082 1.68104 33.6375-0.10816 50.8944c-0.80107 7.72776-6.25468 14.0235-14.0235 14.0235c-10.6187 0-21.8117-0.0493-32.4298 0c-15.9369 0.074-30.5012 1.8136-46.4173 2.63512c-19.8719 1.02582-39.7577-1.75675-59.638-2.63512c-7.76159-0.34296-14.0235-6.2547-14.0235-14.0235c0-9.17405 0.79876-24.1328 0.8765-33.3061c0.13589-15.973-2.69848-25.3335-3.32146-41.2954c-0.48968-12.5467 1.63002-25.059 2.4449-37.5892c0.50416-7.75285 6.25455-14.0235 14.0235-14.0235z" /><path stroke-linecap="butt" stroke-linejoin="round" stroke-width="7" stroke-opacity="1" stroke="rgb(68,68,68)" fill="rgb(121,212,118)" d="m-37.769001-51.427l-13.4757 10.084l-27.4702-36.7101l13.4757-10.084c14.5088 8.34422 19.7679 23.4159 27.4702 36.7101z" /><path stroke-linecap="butt" stroke-linejoin="round" stroke-width="7" stroke-opacity="1" stroke="rgb(68,68,68)" fill="rgb(121,212,118)" d="m-67.428-62.270001l-14.9081 7.81095c-9.07034-11.56-18.0417-23.219-21.2779-40.6132l14.9081-7.81095c4.02139 15.2436 11.2899 28.6834 21.2779 40.6132z" /><path stroke-linecap="butt" stroke-linejoin="round" stroke-width="7" stroke-opacity="1" stroke="rgb(68,68,68)" fill="rgb(121,212,118)" d="m-33.943001-66.554l-16.734201 1.80652c0.92925-12.8824 0.71318-26.7949-4.92125-45.5854l16.7342-1.80654c6.2486 14.3313 9.24478 29.2727 4.92126 45.5854z" /><path stroke-linecap="butt" stroke-linejoin="round" stroke-width="7" stroke-opacity="1" stroke="rgb(68,68,68)" fill="rgb(121,212,118)" d="m-70.228001-30.656001l-8.60987 14.4616c-13.3782-6.34399-27.2497-9.7309-39.3972-23.4548l8.60987-14.4616z" /><path stroke-linecap="butt" stroke-linejoin="round" stroke-width="7" stroke-opacity="1" stroke="rgb(68,68,68)" fill="rgb(121,212,118)" d="m-43.108001-11.397l-6.47418 15.5362c-15.3504-3.14607-30.2474-7.28822-42.3228-17.6368l6.47419-15.5362z" /><path stroke-linecap="butt" stroke-linejoin="round" stroke-width="7" stroke-opacity="1" stroke="rgb(68,68,68)" fill="rgb(121,212,118)" d="m-38.976-43.524l-0.88118 16.8077c-15.5847-4.02333-30.8644-5.00667-45.7864-2.40038l0.88117-16.8077c15.2617-1.97969 30.5248-2.83131 45.7864 2.40039z" /><path stroke-linecap="butt" stroke-linejoin="round" stroke-width="7" stroke-opacity="1" stroke="rgb(68,68,68)" fill="rgb(121,212,118)" d="m-67.497001-57.652l-6.31169 13.9458c-17.1002-0.93495-29.9646-7.91966-42.5045-15.3684l6.31167-13.9458c12.6478 8.163399 27.2178 12.4834 42.5045 15.3684z" /><path stroke-linecap="butt" stroke-linejoin="round" stroke="none" fill="rgb(239,221,158)" d="m46.449 78.021c-1.98637 0-26.9586 0.56754-31.7824-0.85131c-4.82405-1.41885-5.76524-2.28419-10.0219-0.014c-4.25654 2.27019-10.5599 2.16342-12.8301-2.66064c-2.27018-4.82406-1.83606-4.98712-3.53873-13.2164c-1.70268-8.22941-1.13507-9.36443 0.85132-13.621c1.98639-4.25655 2.27019-0.85133 1.13508-9.93195c-1.13506-9.08061-3.68903-27.5256 0.28377-25.823c3.97272 1.70267 4.13718 4.22839 8.96123 8.20125c4.82406 3.97273 2.13958 7.05502 0.54366 14.219c-1.37957 6.19354 0.24584 6.46211 1.38092 13.8402c2.87597 7.11144 8.97551 15.1508 13.5634 20.4196c7.94558 1.98635 14.9358 1.10136 22.0308 0.25005c7.09423-0.85131 9.42348 9.18738 9.42348 9.18738z" /><path stroke-linecap="butt" stroke-linejoin="round" stroke="none" fill="rgb(239,221,158)" d="m72.558-39.156001c1.98579-0.0502 26.935-1.24803 31.7934 0.0485c4.85845 1.29661 5.82113 2.13791 10.019-0.23904s10.502-2.42936 12.8932 2.33591s1.96139 4.93914 3.87121 13.1228c1.90984 8.18364 1.37116 9.33281-0.50712 13.6382c-1.87835 4.30535-2.24801 0.90838-0.88395 9.95745c1.36401 9.04914 4.79592 20.403 0.78136 18.8015c-4.01447-1.60173-4.6556 2.89857-9.57853-0.95115s-2.31692-6.99871-0.90251-14.201c1.22277-6.22641-0.40892-6.4538-1.72999-13.8008c-3.05469-7.03657-9.35514-14.9192-14.0748-20.0716c-7.99315-1.78517-14.9594-0.72391-22.0294 0.30626c-7.07054 1.03016-9.65243-8.94652-9.65243-8.94652z" /><path stroke-linecap="butt" stroke-linejoin="round" stroke="none" fill="rgb(239,221,158)" d="m130.723 26.759999s2.0651 29.324-2.89108 39.2364c-4.95621 9.91224-39.2364 14.8679-41.301 7.84727c-2.06511-7.02117 5.36911-7.43423 18.9984-16.107501c13.6294-8.67324 13.6294-26.433 17.7602-30.1504c4.130099-3.71704 7.43423-0.82602 7.43423-0.82602z" /><path stroke-linecap="butt" stroke-linejoin="round" stroke="none" fill="rgb(239,221,158)" d="m-14.975-4.7s1.82719-22.8461 6.80349-29.9105c4.97645-7.06359 31.9806-6.88723 32.7543-1.23382c0.77329 5.65349-5.00596 5.10497-16.5234 10.202c-11.5182 5.09707-13.589 18.7876-17.2056 21.1725c-3.61735 2.38402-5.82736-0.23002-5.82736-0.23002z" /></g></svg></svg>